<?xml version="1.0" encoding="utf-8"?>
<!-- Generator: Adobe Illustrator 26.0.1, SVG Export Plug-In . SVG Version: 6.00 Build 0)  -->
<svg version="1.1" id="Layer_1" xmlns="http://www.w3.org/2000/svg" xmlns:xlink="http://www.w3.org/1999/xlink" x="0px" y="0px"
	 viewBox="0 0 800.2 802.3" style="enable-background:new 0 0 800.2 802.3;" xml:space="preserve">
<style type="text/css">
	.st0{fill:#FF0000;}
</style>
<g>
	<path class="st0" d="M179.1,283.3c-14.2-2.5-26.6-6.7-33.3-20c-2.5-5.8-5.8-11.7-5.8-18.3c0-19.1-0.8-37.5,2.5-56.6
		c2.5-16.7,21.6-27.5,42.5-28.3h115.7v-33.3c0-29.1,17.5-46.6,46.6-46.6h108.2c30,0,47.5,17.5,47.5,47.5v32.5h60.8
		c22.5,0,45,0,68.3,2.5c17.5,1.7,28.3,15.8,28.3,34.1v50.7c0,15.8-11.7,30-26.6,32.5l-10,2.5v353c0,23.3-5.8,45-22.5,62.4
		c-14.2,15-31.6,24.1-52.4,24.1h-293c-31.6,0-64.9-26.6-70.8-58.3c-2.5-12.5-4.2-24.1-4.2-36.6V295.8
		C179.1,291.6,179.1,288.3,179.1,283.3L179.1,283.3z M220.7,283.3v355.5c0,28.3,16.7,44.1,45.8,44.1h267.2c30,0,46.6-15.8,46.6-46.6
		v-343v-10.8C459.7,283.3,340.6,283.3,220.7,283.3L220.7,283.3z M399.7,241.7H597c14.2,0,23.3-7.5,23.3-19.1s-9.2-20-23.3-20H199.9
		c-10.8,1.7-19.1,10-19.1,19.1c0,10,9.2,18.3,20.8,19.1h8.3C272.4,241.7,335.6,241.7,399.7,241.7z M340.6,160.1h119.1v-16.7
		c-0.8-13.3-8.3-20.8-21.6-21.6c-25.8-0.8-50.8-0.8-76.6,0c-14.2,0-20.8,8.3-21.6,22.5C340.6,149.2,340.6,155.1,340.6,160.1
		L340.6,160.1z"/>
	<path class="st0" d="M521.3,503.1v113.2c0,18.3-7.5,27.5-20.8,28.3c-13.3,0-20.8-10-20.8-28.3V389.8c0-16.7,5-24.1,16.7-26.6
		s22.5,4.2,24.1,15.8c0.8,4.2,0.8,9.2,0.8,13.3V503.1z M319.8,503.1V623c0,11.7-7.5,20-18.3,20.8c-10,0.8-19.1-5.8-21.6-16.7
		c-0.8-4.2-1.7-9.2-1.7-13.3V423.1c0-11.7-0.8-24.1,0-35.8c0.8-7.5,4.2-15,9.2-20.8s14.2-5.8,20.8-2.5c7.5,4.2,11.7,10,11.7,19.1
		L319.8,503.1L319.8,503.1z M379.8,503.1V385.7c0-16.7,12.5-26.6,26.6-21.6c9.2,2.5,14.2,10.8,14.2,23.3v232.3
		c0,18.3-13.3,30-28.3,23.3c-10-4.2-13.3-11.7-13.3-22.5C379.8,581.3,379.8,542.2,379.8,503.1z"/>
</g>
</svg>
