<svg width="17" height="17" viewBox="0 0 17 17" fill="none" xmlns="http://www.w3.org/2000/svg">
<g id="trash">
<path id="Icon" fill-rule="evenodd" clip-rule="evenodd" d="M7.94091 1.8331C7.48526 1.83242 7.08534 1.83182 6.729 1.97197C6.41741 2.09452 6.14157 2.29333 5.92678 2.55018C5.68114 2.84392 5.55524 3.2235 5.4118 3.65598L5.35283 3.8332H3.16667C2.79848 3.8332 2.5 4.13167 2.5 4.49986C2.5 4.86805 2.79848 5.16653 3.16667 5.16653H3.83333L3.83333 11.3274C3.83332 11.864 3.83332 12.307 3.8628 12.6677C3.89341 13.0425 3.95912 13.3869 4.12398 13.7105C4.37965 14.2123 4.78759 14.6202 5.28936 14.8759C5.61292 15.0407 5.95738 15.1065 6.33212 15.1371C6.69291 15.1665 7.13581 15.1665 7.67245 15.1665H9.32755C9.86419 15.1665 10.3071 15.1665 10.6679 15.1371C11.0426 15.1065 11.3871 15.0407 11.7106 14.8759C12.2124 14.6202 12.6204 14.2123 12.876 13.7105C13.0409 13.3869 13.1066 13.0425 13.1372 12.6677C13.1667 12.3069 13.1667 11.864 13.1667 11.3274V5.16653H13.8333C14.2015 5.16653 14.5 4.86805 14.5 4.49986C14.5 4.13167 14.2015 3.8332 13.8333 3.8332H11.6472L11.5882 3.65597C11.4448 3.2235 11.3189 2.84392 11.0732 2.55018C10.8584 2.29333 10.5826 2.09452 10.271 1.97197C9.91466 1.83182 9.51474 1.83242 9.05909 1.8331H7.94091ZM6.76042 3.8332H10.2396C10.1372 3.5404 10.0974 3.46172 10.0504 3.40552C9.9788 3.31991 9.88686 3.25364 9.78299 3.21279C9.69386 3.17773 9.57218 3.16653 8.96238 3.16653H8.03762C7.42782 3.16653 7.30614 3.17773 7.21701 3.21279C7.11314 3.25364 7.0212 3.31991 6.9496 3.40552C6.90261 3.46172 6.86282 3.5404 6.76042 3.8332ZM7.83333 7.16667C7.83333 6.79848 7.53486 6.5 7.16667 6.5C6.79848 6.5 6.5 6.79848 6.5 7.16667V11.8333C6.5 12.2015 6.79848 12.5 7.16667 12.5C7.53486 12.5 7.83333 12.2015 7.83333 11.8333V7.16667ZM10.5 7.16667C10.5 6.79848 10.2015 6.5 9.83333 6.5C9.46514 6.5 9.16667 6.79848 9.16667 7.16667V11.8333C9.16667 12.2015 9.46514 12.5 9.83333 12.5C10.2015 12.5 10.5 12.2015 10.5 11.8333V7.16667Z" fill="white"/>
</g>
</svg>
