<svg width="24" height="24" viewBox="0 0 24 24" fill="none" xmlns="http://www.w3.org/2000/svg">
<g id="user-alt-1">
<g id="Icon">
<path d="M12.0001 2C9.23869 2 7.00012 4.23858 7.00012 7C7.00012 9.76142 9.23869 12 12.0001 12C14.7615 12 17.0001 9.76142 17.0001 7C17.0001 4.23858 14.7615 2 12.0001 2Z" fill="#8F8F8F"/>
<path d="M12.0001 13C15.5852 13 18.6806 15.0961 20.1278 18.1297C20.4451 18.7949 20.6037 19.1275 20.4798 19.8975C20.3958 20.4187 19.8673 21.2564 19.433 21.5566C18.7914 22 18.1943 22 17.0001 22H7.00012C5.8059 22 5.2088 22 4.56724 21.5566C4.13293 21.2564 3.60441 20.4187 3.52048 19.8975C3.39649 19.1275 3.55515 18.7949 3.87248 18.1297C5.31961 15.0961 8.41507 13 12.0001 13Z" fill="#8F8F8F"/>
</g>
</g>
</svg>
